<svg xmlns="http://www.w3.org/2000/svg">
    <symbol id="home" viewBox="0 0 24 24">
        <path d="M12.5 3.247a1 1 0 00-1 0L4 7.577V20h4.5v-6a1 1 0 011-1h5a1 1 0 011 1v6H20V7.577l-7.5-4.33zm-2-1.732a3 3 0 013 0l7.5 4.33a2 2 0 011 1.732V21a1 1 0 01-1 1h-6.5a1 1 0 01-1-1v-6h-3v6a1 1 0 01-1 1H3a1 1 0 01-1-1V7.577a2 2 0 011-1.732l7.5-4.33z"></path>
    </symbol>
    
    <symbol id="search" viewBox="0 0 24 24">
        <path d="M1.126 10.558c0-5.14 4.226-9.28 9.407-9.28 5.18 0 9.407 4.14 9.407 9.28a9.157 9.157 0 01-2.077 5.816l4.344 4.344a1 1 0 01-1.414 1.414l-4.353-4.353a9.454 9.454 0 01-5.907 2.058c-5.18 0-9.407-4.14-9.407-9.28zm9.407-7.28c-4.105 0-7.407 3.274-7.407 7.28s3.302 7.279 7.407 7.279 7.407-3.273 7.407-7.28c0-4.005-3.302-7.278-7.407-7.278z"></path>
    </symbol>

    <symbol id="search_active" viewBox="0 0 24 24">
        <path d="M15.356 10.558c0 2.623-2.16 4.75-4.823 4.75-2.664 0-4.824-2.127-4.824-4.75s2.16-4.75 4.824-4.75c2.664 0 4.823 2.127 4.823 4.75z"></path>
    </symbol>

    <symbol id="media" viewBox="0 0 24 24">
        <path d="M14.5 2.134a1 1 0 011 0l6 3.464a1 1 0 01.5.866V21a1 1 0 01-1 1h-6a1 1 0 01-1-1V3a1 1 0 01.5-.866zM16 4.732V20h4V7.041l-4-2.309zM3 22a1 1 0 01-1-1V3a1 1 0 012 0v18a1 1 0 01-1 1zm6 0a1 1 0 01-1-1V3a1 1 0 012 0v18a1 1 0 01-1 1z"></path>
    </symbol>

    <symbol id="full_heart" viewBox="0 0 16 16">
        <path d="M15.724 4.22A4.313 4.313 0 0012.192.814a4.269 4.269 0 00-3.622 1.13.837.837 0 01-1.14 0 4.272 4.272 0 00-6.21 5.855l5.916 7.05a1.128 1.128 0 001.727 0l5.916-7.05a4.228 4.228 0 00.945-3.577z"></path>
    </symbol>

    <symbol id="download" viewBox="0 0 24 24">
        <path d="M12 3a9 9 0 100 18 9 9 0 000-18zM1 12C1 5.925 5.925 1 12 1s11 4.925 11 11-4.925 11-11 11S1 18.075 1 12z"></path>
        <path d="M12 6.05a1 1 0 011 1v7.486l1.793-1.793a1 1 0 111.414 1.414L12 18.364l-4.207-4.207a1 1 0 111.414-1.414L11 14.536V7.05a1 1 0 011-1z"></path>
    </symbol>

    <symbol id="arrow_left" viewBox="0 0 24 24">
        <path d="M15.957 2.793a1 1 0 010 1.414L8.164 12l7.793 7.793a1 1 0 11-1.414 1.414L5.336 12l9.207-9.207a1 1 0 011.414 0z"></path>
    </symbol>

    <symbol id="clear" viewBox="0 0 24 24">
        <path d="M3.293 3.293a1 1 0 011.414 0L12 10.586l7.293-7.293a1 1 0 111.414 1.414L13.414 12l7.293 7.293a1 1 0 01-1.414 1.414L12 13.414l-7.293 7.293a1 1 0 01-1.414-1.414L10.586 12 3.293 4.707a1 1 0 010-1.414z"></path>
    </symbol>

    <symbol id="user" viewBox="0 0 18 20">
        <path d="M15.216 13.717L12 11.869C11.823 11.768 11.772 11.607 11.757 11.521C11.742 11.435 11.737 11.267 11.869 11.111L13.18 9.57401C14.031 8.58001 14.5 7.31101 14.5 6.00001V5.50001C14.5 3.98501 13.866 2.52301 12.761 1.48601C11.64 0.435011 10.173 -0.0879888 8.636 0.0110112C5.756 0.198011 3.501 2.68401 3.501 5.67101V6.00001C3.501 7.31101 3.97 8.58001 4.82 9.57401L6.131 11.111C6.264 11.266 6.258 11.434 6.243 11.521C6.228 11.607 6.177 11.768 5.999 11.869L2.786 13.716C1.067 14.692 0 16.526 0 18.501V20H1V18.501C1 16.885 1.874 15.385 3.283 14.584L6.498 12.736C6.886 12.513 7.152 12.132 7.228 11.691C7.304 11.251 7.182 10.802 6.891 10.462L5.579 8.92501C4.883 8.11101 4.499 7.07201 4.499 6.00001V5.67101C4.499 3.21001 6.344 1.16201 8.699 1.00901C9.961 0.928011 11.159 1.35601 12.076 2.21501C12.994 3.07601 13.5 4.24301 13.5 5.50001V6.00001C13.5 7.07201 13.117 8.11101 12.42 8.92501L11.109 10.462C10.819 10.803 10.696 11.251 10.772 11.691C10.849 12.132 11.115 12.513 11.503 12.736L14.721 14.585C16.127 15.384 17.001 16.884 17.001 18.501V20H18.001V18.501C18 16.526 16.932 14.692 15.216 13.717Z"></path>
    </symbol>

    <symbol id="arrow_down" viewBox="0 0 16 16">
        <path d="M14 6l-6 6-6-6h12z"></path>
    </symbol>

    <symbol id="cross" viewBox="0 0 24 24">
        <path d="M4.93,4.93,19.07,19.07m-14.14,0L19.07,4.93"></path>
    </symbol>

    <symbol id="upprove" viewBox="0 0 24 24">
        <path fill="#2E77D0" d="M12 21.6596l-3.38079 1.8543-1.84158-3.3877-3.84662-.2679.28231-3.8456-3.09118-2.3049 2.31658-3.0825-1.3543-3.61028 3.61534-1.34071.81255-3.76935 3.76627.82672L12 0l2.7214 2.73168 3.7663-.82672.8125 3.76935 3.6154 1.34071-1.3543 3.61028 2.3166 3.0825-3.0912 2.3049.2823 3.8456-3.8466.2679-1.8416 3.3877L12 21.6596z"></path>
        <path fill="#fff" d="M16.8637 7.41226l-6.6435 7.77824-2.80421-3.2842-.4935.5775 3.29771 3.8617 7.2135-8.44649-.57-.48675z"></path>
    </symbol>

    <symbol id="artist" viewBox="-25 -22 100 100">
        <path d="M35.711 34.619l-4.283-2.461a1.654 1.654 0 0 1-.808-1.156 1.65 1.65 0 0 1 .373-1.36l3.486-4.088a14.3 14.3 0 0 0 3.432-9.293V14.93c0-3.938-1.648-7.74-4.522-10.435C30.475 1.764 26.658.398 22.661.661c-7.486.484-13.35 6.952-13.35 14.725v.875c0 3.408 1.219 6.708 3.431 9.292l3.487 4.089a1.656 1.656 0 0 1-.436 2.516l-8.548 4.914A14.337 14.337 0 0 0 0 49.513V53.5h2v-3.987c0-4.417 2.388-8.518 6.237-10.705l8.552-4.916a3.648 3.648 0 0 0 1.783-2.549 3.643 3.643 0 0 0-.822-2.999l-3.488-4.091a12.297 12.297 0 0 1-2.951-7.993v-.875c0-6.721 5.042-12.312 11.479-12.729 3.449-.22 6.725.949 9.231 3.298a12.182 12.182 0 0 1 3.89 8.976v1.331c0 2.931-1.048 5.77-2.952 7.994l-3.487 4.089a3.653 3.653 0 0 0-.822 3 3.653 3.653 0 0 0 1.782 2.548l3.036 1.745a11.959 11.959 0 0 1 2.243-1.018zM45 25.629v15.289a7.476 7.476 0 0 0-5.501-2.418c-4.135 0-7.5 3.365-7.5 7.5s3.364 7.5 7.5 7.5 7.5-3.365 7.5-7.5V29.093l5.861 3.384 1-1.732L45 25.629zM39.499 51.5a5.506 5.506 0 0 1-5.5-5.5c0-3.033 2.467-5.5 5.5-5.5s5.5 2.467 5.5 5.5-2.467 5.5-5.5 5.5z"></path>
    </symbol>

    <symbol id="play" viewBox="0 0 24 24">
        <path d="M7.05 3.606l13.49 7.788a.7.7 0 010 1.212L7.05 20.394A.7.7 0 016 19.788V4.212a.7.7 0 011.05-.606z"></path>
    </symbol>

    <symbol id="heart" viewBox="0 0 16 16">
        <path d="M1.69 2A4.582 4.582 0 018 2.023 4.583 4.583 0 0111.88.817h.002a4.618 4.618 0 013.782 3.65v.003a4.543 4.543 0 01-1.011 3.84L9.35 14.629a1.765 1.765 0 01-2.093.464 1.762 1.762 0 01-.605-.463L1.348 8.309A4.582 4.582 0 011.689 2zm3.158.252A3.082 3.082 0 002.49 7.337l.005.005L7.8 13.664a.264.264 0 00.311.069.262.262 0 00.09-.069l5.312-6.33a3.043 3.043 0 00.68-2.573 3.118 3.118 0 00-2.551-2.463 3.079 3.079 0 00-2.612.816l-.007.007a1.501 1.501 0 01-2.045 0l-.009-.008a3.082 3.082 0 00-2.121-.861z"></path>
    </symbol>

    <symbol id="other" viewBox="0 0 16 16">
        <path d="M3 8a1.5 1.5 0 11-3 0 1.5 1.5 0 013 0zm6.5 0a1.5 1.5 0 11-3 0 1.5 1.5 0 013 0zM16 8a1.5 1.5 0 11-3 0 1.5 1.5 0 013 0z"></path>
    </symbol>

    <symbol id="clock" viewBox="0 0 16 16">
        <path d="M8 1.5a6.5 6.5 0 100 13 6.5 6.5 0 000-13zM0 8a8 8 0 1116 0A8 8 0 010 8z"></path>
        <path d="M8 3.25a.75.75 0 01.75.75v3.25H11a.75.75 0 010 1.5H7.25V4A.75.75 0 018 3.25z"></path>
    </symbol>

    <!-- player -->
    
    <symbol id="mix" viewBox="0 0 16 16">
        <path d="M13.151.922a.75.75 0 10-1.06 1.06L13.109 3H11.16a3.75 3.75 0 00-2.873 1.34l-6.173 7.356A2.25 2.25 0 01.39 12.5H0V14h.391a3.75 3.75 0 002.873-1.34l6.173-7.356a2.25 2.25 0 011.724-.804h1.947l-1.017 1.018a.75.75 0 001.06 1.06L15.98 3.75 13.15.922zM.391 3.5H0V2h.391c1.109 0 2.16.49 2.873 1.34L4.89 5.277l-.979 1.167-1.796-2.14A2.25 2.25 0 00.39 3.5z"></path>
        <path d="M7.5 10.723l.98-1.167.957 1.14a2.25 2.25 0 001.724.804h1.947l-1.017-1.018a.75.75 0 111.06-1.06l2.829 2.828-2.829 2.828a.75.75 0 11-1.06-1.06L13.109 13H11.16a3.75 3.75 0 01-2.873-1.34l-.787-.938z"></path>
    </symbol>

    <symbol id="prev" viewBox="0 0 16 16">
        <path d="M3.3 1a.7.7 0 01.7.7v5.15l9.95-5.744a.7.7 0 011.05.606v12.575a.7.7 0 01-1.05.607L4 9.149V14.3a.7.7 0 01-.7.7H1.7a.7.7 0 01-.7-.7V1.7a.7.7 0 01.7-.7h1.6z"></path>
    </symbol>

    <symbol id="pause" viewBox="0 0 16 16">
        <path d="M2.7 1a.7.7 0 00-.7.7v12.6a.7.7 0 00.7.7h2.6a.7.7 0 00.7-.7V1.7a.7.7 0 00-.7-.7H2.7zm8 0a.7.7 0 00-.7.7v12.6a.7.7 0 00.7.7h2.6a.7.7 0 00.7-.7V1.7a.7.7 0 00-.7-.7h-2.6z"></path>
    </symbol>

    <symbol id="repeat" viewBox="0 0 16 16">
        <path d="M0 4.75A3.75 3.75 0 013.75 1h8.5A3.75 3.75 0 0116 4.75v5a3.75 3.75 0 01-3.75 3.75H9.81l1.018 1.018a.75.75 0 11-1.06 1.06L6.939 12.75l2.829-2.828a.75.75 0 111.06 1.06L9.811 12h2.439a2.25 2.25 0 002.25-2.25v-5a2.25 2.25 0 00-2.25-2.25h-8.5A2.25 2.25 0 001.5 4.75v5A2.25 2.25 0 003.75 12H5v1.5H3.75A3.75 3.75 0 010 9.75v-5z"></path>
    </symbol>

    <symbol id="query" viewBox="0 0 16 16">
        <path d="M15 15H1v-1.5h14V15zm0-4.5H1V9h14v1.5zm-14-7A2.5 2.5 0 013.5 1h9a2.5 2.5 0 010 5h-9A2.5 2.5 0 011 3.5zm2.5-1a1 1 0 000 2h9a1 1 0 100-2h-9z"></path>
    </symbol>

    <symbol id="device_connect" viewBox="0 0 16 16">
        <path d="M6 2.75C6 1.784 6.784 1 7.75 1h6.5c.966 0 1.75.784 1.75 1.75v10.5A1.75 1.75 0 0114.25 15h-6.5A1.75 1.75 0 016 13.25V2.75zm1.75-.25a.25.25 0 00-.25.25v10.5c0 .138.112.25.25.25h6.5a.25.25 0 00.25-.25V2.75a.25.25 0 00-.25-.25h-6.5zm-6 0a.25.25 0 00-.25.25v6.5c0 .138.112.25.25.25H4V11H1.75A1.75 1.75 0 010 9.25v-6.5C0 1.784.784 1 1.75 1H4v1.5H1.75zM4 15H2v-1.5h2V15z"></path>
        <path d="M13 10a2 2 0 11-4 0 2 2 0 014 0zm-1-5a1 1 0 11-2 0 1 1 0 012 0z"></path>
    </symbol>

    <symbol id="volume" viewBox="0 0 16 16">
        <path d="M9.741.85a.75.75 0 01.375.65v13a.75.75 0 01-1.125.65l-6.925-4a3.642 3.642 0 01-1.33-4.967 3.639 3.639 0 011.33-1.332l6.925-4a.75.75 0 01.75 0zm-6.924 5.3a2.139 2.139 0 000 3.7l5.8 3.35V2.8l-5.8 3.35zm8.683 4.29V5.56a2.75 2.75 0 010 4.88z"></path>
        <path d="M11.5 13.614a5.752 5.752 0 000-11.228v1.55a4.252 4.252 0 010 8.127v1.55z"></path>
    </symbol>
</svg>