<svg xmlns="http://www.w3.org/2000/svg">
    <symbol id="home" viewBox="0 0 24 24">
        <path d="M12.5 3.247a1 1 0 00-1 0L4 7.577V20h4.5v-6a1 1 0 011-1h5a1 1 0 011 1v6H20V7.577l-7.5-4.33zm-2-1.732a3 3 0 013 0l7.5 4.33a2 2 0 011 1.732V21a1 1 0 01-1 1h-6.5a1 1 0 01-1-1v-6h-3v6a1 1 0 01-1 1H3a1 1 0 01-1-1V7.577a2 2 0 011-1.732l7.5-4.33z"></path>
    </symbol>
    
    <symbol id="search" viewBox="0 0 24 24">
        <path d="M1.126 10.558c0-5.14 4.226-9.28 9.407-9.28 5.18 0 9.407 4.14 9.407 9.28a9.157 9.157 0 01-2.077 5.816l4.344 4.344a1 1 0 01-1.414 1.414l-4.353-4.353a9.454 9.454 0 01-5.907 2.058c-5.18 0-9.407-4.14-9.407-9.28zm9.407-7.28c-4.105 0-7.407 3.274-7.407 7.28s3.302 7.279 7.407 7.279 7.407-3.273 7.407-7.28c0-4.005-3.302-7.278-7.407-7.278z"></path>
    </symbol>

    <symbol id="search_active" viewBox="0 0 24 24">
        <path d="M15.356 10.558c0 2.623-2.16 4.75-4.823 4.75-2.664 0-4.824-2.127-4.824-4.75s2.16-4.75 4.824-4.75c2.664 0 4.823 2.127 4.823 4.75z"></path>
    </symbol>

    <symbol id="media" viewBox="0 0 24 24">
        <path d="M14.5 2.134a1 1 0 011 0l6 3.464a1 1 0 01.5.866V21a1 1 0 01-1 1h-6a1 1 0 01-1-1V3a1 1 0 01.5-.866zM16 4.732V20h4V7.041l-4-2.309zM3 22a1 1 0 01-1-1V3a1 1 0 012 0v18a1 1 0 01-1 1zm6 0a1 1 0 01-1-1V3a1 1 0 012 0v18a1 1 0 01-1 1z"></path>
    </symbol>

    <symbol id="heart" viewBox="0 0 16 16">
        <path d="M15.724 4.22A4.313 4.313 0 0012.192.814a4.269 4.269 0 00-3.622 1.13.837.837 0 01-1.14 0 4.272 4.272 0 00-6.21 5.855l5.916 7.05a1.128 1.128 0 001.727 0l5.916-7.05a4.228 4.228 0 00.945-3.577z"></path>
    </symbol>

    <symbol id="download" viewBox="0 0 24 24">
        <path d="M12 3a9 9 0 100 18 9 9 0 000-18zM1 12C1 5.925 5.925 1 12 1s11 4.925 11 11-4.925 11-11 11S1 18.075 1 12z"></path>
        <path d="M12 6.05a1 1 0 011 1v7.486l1.793-1.793a1 1 0 111.414 1.414L12 18.364l-4.207-4.207a1 1 0 111.414-1.414L11 14.536V7.05a1 1 0 011-1z"></path>
    </symbol>

    <symbol id="arrow_left" viewBox="0 0 24 24">
        <path d="M15.957 2.793a1 1 0 010 1.414L8.164 12l7.793 7.793a1 1 0 11-1.414 1.414L5.336 12l9.207-9.207a1 1 0 011.414 0z"></path>
    </symbol>

    <symbol id="clear" viewBox="0 0 24 24">
        <path d="M3.293 3.293a1 1 0 011.414 0L12 10.586l7.293-7.293a1 1 0 111.414 1.414L13.414 12l7.293 7.293a1 1 0 01-1.414 1.414L12 13.414l-7.293 7.293a1 1 0 01-1.414-1.414L10.586 12 3.293 4.707a1 1 0 010-1.414z"></path>
    </symbol>

    <symbol id="user" viewBox="0 0 24 24">
        <path d="M15.216 13.717L12 11.869C11.823 11.768 11.772 11.607 11.757 11.521C11.742 11.435 11.737 11.267 11.869 11.111L13.18 9.57401C14.031 8.58001 14.5 7.31101 14.5 6.00001V5.50001C14.5 3.98501 13.866 2.52301 12.761 1.48601C11.64 0.435011 10.173 -0.0879888 8.636 0.0110112C5.756 0.198011 3.501 2.68401 3.501 5.67101V6.00001C3.501 7.31101 3.97 8.58001 4.82 9.57401L6.131 11.111C6.264 11.266 6.258 11.434 6.243 11.521C6.228 11.607 6.177 11.768 5.999 11.869L2.786 13.716C1.067 14.692 0 16.526 0 18.501V20H1V18.501C1 16.885 1.874 15.385 3.283 14.584L6.498 12.736C6.886 12.513 7.152 12.132 7.228 11.691C7.304 11.251 7.182 10.802 6.891 10.462L5.579 8.92501C4.883 8.11101 4.499 7.07201 4.499 6.00001V5.67101C4.499 3.21001 6.344 1.16201 8.699 1.00901C9.961 0.928011 11.159 1.35601 12.076 2.21501C12.994 3.07601 13.5 4.24301 13.5 5.50001V6.00001C13.5 7.07201 13.117 8.11101 12.42 8.92501L11.109 10.462C10.819 10.803 10.696 11.251 10.772 11.691C10.849 12.132 11.115 12.513 11.503 12.736L14.721 14.585C16.127 15.384 17.001 16.884 17.001 18.501V20H18.001V18.501C18 16.526 16.932 14.692 15.216 13.717Z"></path>
    </symbol>

    <symbol id="arrow_down" viewBox="0 0 24 24">
        <path d="M14 6l-6 6-6-6h12z"></path>
    </symbol>
</svg>