<svg xmlns="http://www.w3.org/2000/svg">
    <symbol id="mix" viewBox="0 0 16 16">
        <path d="M13.151.922a.75.75 0 10-1.06 1.06L13.109 3H11.16a3.75 3.75 0 00-2.873 1.34l-6.173 7.356A2.25 2.25 0 01.39 12.5H0V14h.391a3.75 3.75 0 002.873-1.34l6.173-7.356a2.25 2.25 0 011.724-.804h1.947l-1.017 1.018a.75.75 0 001.06 1.06L15.98 3.75 13.15.922zM.391 3.5H0V2h.391c1.109 0 2.16.49 2.873 1.34L4.89 5.277l-.979 1.167-1.796-2.14A2.25 2.25 0 00.39 3.5z"></path>
        <path d="M7.5 10.723l.98-1.167.957 1.14a2.25 2.25 0 001.724.804h1.947l-1.017-1.018a.75.75 0 111.06-1.06l2.829 2.828-2.829 2.828a.75.75 0 11-1.06-1.06L13.109 13H11.16a3.75 3.75 0 01-2.873-1.34l-.787-.938z"></path>
    </symbol>

    <symbol id="arrow_left" viewBox="0 0 16 16">
        <path d="M3.3 1a.7.7 0 01.7.7v5.15l9.95-5.744a.7.7 0 011.05.606v12.575a.7.7 0 01-1.05.607L4 9.149V14.3a.7.7 0 01-.7.7H1.7a.7.7 0 01-.7-.7V1.7a.7.7 0 01.7-.7h1.6z"></path>
    </symbol>

    <symbol id="pause" viewBox="0 0 16 16">
        <path d="M2.7 1a.7.7 0 00-.7.7v12.6a.7.7 0 00.7.7h2.6a.7.7 0 00.7-.7V1.7a.7.7 0 00-.7-.7H2.7zm8 0a.7.7 0 00-.7.7v12.6a.7.7 0 00.7.7h2.6a.7.7 0 00.7-.7V1.7a.7.7 0 00-.7-.7h-2.6z"></path>
    </symbol>

    <symbol id="repeat" viewBox="0 0 16 16">
        <path d="M0 4.75A3.75 3.75 0 013.75 1h8.5A3.75 3.75 0 0116 4.75v5a3.75 3.75 0 01-3.75 3.75H9.81l1.018 1.018a.75.75 0 11-1.06 1.06L6.939 12.75l2.829-2.828a.75.75 0 111.06 1.06L9.811 12h2.439a2.25 2.25 0 002.25-2.25v-5a2.25 2.25 0 00-2.25-2.25h-8.5A2.25 2.25 0 001.5 4.75v5A2.25 2.25 0 003.75 12H5v1.5H3.75A3.75 3.75 0 010 9.75v-5z"></path>
    </symbol>

    <symbol id="query" viewBox="0 0 16 16">
        <path d="M15 15H1v-1.5h14V15zm0-4.5H1V9h14v1.5zm-14-7A2.5 2.5 0 013.5 1h9a2.5 2.5 0 010 5h-9A2.5 2.5 0 011 3.5zm2.5-1a1 1 0 000 2h9a1 1 0 100-2h-9z"></path>
    </symbol>

    <symbol id="device_connect" viewBox="0 0 16 16">
        <path d="M6 2.75C6 1.784 6.784 1 7.75 1h6.5c.966 0 1.75.784 1.75 1.75v10.5A1.75 1.75 0 0114.25 15h-6.5A1.75 1.75 0 016 13.25V2.75zm1.75-.25a.25.25 0 00-.25.25v10.5c0 .138.112.25.25.25h6.5a.25.25 0 00.25-.25V2.75a.25.25 0 00-.25-.25h-6.5zm-6 0a.25.25 0 00-.25.25v6.5c0 .138.112.25.25.25H4V11H1.75A1.75 1.75 0 010 9.25v-6.5C0 1.784.784 1 1.75 1H4v1.5H1.75zM4 15H2v-1.5h2V15z"></path>
        <path d="M13 10a2 2 0 11-4 0 2 2 0 014 0zm-1-5a1 1 0 11-2 0 1 1 0 012 0z"></path>
    </symbol>

    <symbol id="volume" viewBox="0 0 16 16">
        <path d="M9.741.85a.75.75 0 01.375.65v13a.75.75 0 01-1.125.65l-6.925-4a3.642 3.642 0 01-1.33-4.967 3.639 3.639 0 011.33-1.332l6.925-4a.75.75 0 01.75 0zm-6.924 5.3a2.139 2.139 0 000 3.7l5.8 3.35V2.8l-5.8 3.35zm8.683 4.29V5.56a2.75 2.75 0 010 4.88z"></path>
        <path d="M11.5 13.614a5.752 5.752 0 000-11.228v1.55a4.252 4.252 0 010 8.127v1.55z"></path>
    </symbol>
</svg>